<?xml version="1.0" encoding="UTF-8"?>
<svg width="19px" height="19px" viewBox="0 0 19 19" version="1.1" xmlns="http://www.w3.org/2000/svg" xmlns:xlink="http://www.w3.org/1999/xlink">
    <!-- Generator: Sketch 58 (84663) - https://sketch.com -->
    <title>google_logo</title>
    <desc>Created with Sketch.</desc>
    <defs>
        <path d="M9.12,2.3275 C9.12,5.21972222 8.08344444,7.65594444 6.28688889,9.31 L3.21733333,9.31 L3.21733333,6.9255 C4.22327778,6.25205556 4.8925,5.24611111 5.11311111,4.05861111 L0,4.05861111 L0,0.384222222 L8.94688889,0.384222222 C9.05983333,1.00594444 9.12,1.653 9.12,2.3275 Z" id="path-1"></path>
        <path d="M8.5,8.44444444 C4.78655556,8.44444444 1.57344444,6.31538889 0.0101666667,3.211 L0.0101666667,0.749444444 L3.18422222,0.749444444 C3.93155556,2.99461111 6.02577778,4.66555556 8.5,4.66555556 C9.77827778,4.66555556 10.8665556,4.32883333 11.7173333,3.75883333 L14.7868889,6.14333333 C13.2151667,7.59366667 11.065,8.44444444 8.5,8.44444444 Z" id="path-3"></path>
        <path d="M4.18422222,7.08277778 L1.01016667,9.54433333 C0.367333333,8.26183333 0,6.81044444 0,5.27777778 C0,3.74511111 0.367333333,2.29372222 1.01016667,1.01122222 L4.18422222,1.01122222 L4.18422222,3.47277778 C3.99422222,4.04277778 3.88655556,4.65183333 3.88655556,5.27777778 C3.88655556,5.90372222 3.99422222,6.51277778 4.18422222,7.08277778 Z" id="path-5"></path>
        <path d="M9.5,3.77888889 C7.02577778,3.77888889 4.93155556,5.44983333 4.18422222,7.695 L1.01016667,5.23344444 C2.57344444,2.12905556 5.78655556,0 9.5,0 C12.0607778,0 14.2109444,0.941555556 15.8565556,2.47422222 L13.1311111,5.19861111 C12.1473333,4.25811111 10.8943889,3.77888889 9.5,3.77888889 Z" id="path-7"></path>
    </defs>
    <g id="Page-1" stroke="none" stroke-width="1" fill="none" fill-rule="evenodd">
        <g id="Login-web" transform="translate(-546.000000, -569.000000)">
            <g id="Group-4" transform="translate(537.000000, 561.000000)">
                <g id="google_logo" transform="translate(6.000000, 6.000000)">
                    <rect id="shape" x="0" y="0" width="24" height="24"></rect>
                    <g id="btn_google" transform="translate(3.000000, 2.000000)">
                        <g id="Group-7" transform="translate(9.500000, 7.388889)">
                            <mask id="mask-2" fill="white">
                                <use xlink:href="#path-1"></use>
                            </mask>
                            <g id="Clip-6"></g>
                            <polygon id="Fill-5" fill="#318AF5" mask="url(#mask-2)" points="-0.0211111111 9.41555556 9.22555556 9.41555556 9.22555556 0.295555556 -0.0211111111 0.295555556"></polygon>
                        </g>
                        <g id="Group-10" transform="translate(1.000000, 10.555556)">
                            <mask id="mask-4" fill="white">
                                <use xlink:href="#path-3"></use>
                            </mask>
                            <g id="Clip-9"></g>
                            <polygon id="Fill-8" fill="#3DA751" mask="url(#mask-4)" points="-0.00777777778 8.52888889 14.8122222 8.52888889 14.8122222 0.675555556 -0.00777777778 0.675555556"></polygon>
                        </g>
                        <g id="Group-13" transform="translate(0.000000, 4.222222)">
                            <mask id="mask-6" fill="white">
                                <use xlink:href="#path-5"></use>
                            </mask>
                            <g id="Clip-12"></g>
                            <polygon id="Fill-11" fill="#FDB900" mask="url(#mask-6)" points="-0.0211111111 9.66888889 4.28555556 9.66888889 4.28555556 0.928888889 -0.0211111111 0.928888889"></polygon>
                        </g>
                        <g id="Group-16">
                            <mask id="mask-8" fill="white">
                                <use xlink:href="#path-7"></use>
                            </mask>
                            <g id="Clip-15"></g>
                            <polygon id="Fill-14" fill="#EA3E36" mask="url(#mask-8)" points="0.992222222 7.81111111 15.9388889 7.81111111 15.9388889 -0.0422222222 0.992222222 -0.0422222222"></polygon>
                        </g>
                    </g>
                </g>
            </g>
        </g>
    </g>
</svg>